<svg id="Layer_1" height="512" viewBox="0 0 128 128" width="512" xmlns="http://www.w3.org/2000/svg" data-name="Layer 1"><path d="m64 58.845h46.107v46.107h-46.107z" fill="#ffc1e0" transform="matrix(.964 -.266 .266 .964 -18.638 26.086)"/><path d="m58.7 65.8 7.982 28.949c11.937 6.3 28.382 8.326 44.432 4.426l4.29-1.183-12.254-44.446z" fill="#fac"/><path d="m12.595 64.143h46.107v46.107h-46.107z" fill="#b0ee96"/><path d="m19.142 18.036h46.107v46.107h-46.107z" fill="#ffea98"/><g fill="#57565c"><path d="m47.046 98.555h-4.99l-1.984-5.155h-9.081l-1.875 5.16h-4.865l8.849-22.722h4.85zm-8.446-8.987-3.13-8.43-3.07 8.43z"/><path d="m74.967 73.448 8.754-2.414a26.233 26.233 0 0 1 3.936-.852 5.908 5.908 0 0 1 2.535.274 5.831 5.831 0 0 1 2.185 1.367 5.143 5.143 0 0 1 1.379 2.377 5.385 5.385 0 0 1 -1.768 5.6 5.978 5.978 0 0 1 3.625 1.138 5.471 5.471 0 0 1 1.986 3 6.752 6.752 0 0 1 .106 3.1 6.071 6.071 0 0 1 -1.275 2.779 6.5 6.5 0 0 1 -2.679 1.856q-1.073.424-5.292 1.62l-7.454 2.055zm5.427 2.426 1.4 5.064 2.9-.8q2.584-.713 3.191-.96a3.032 3.032 0 0 0 1.563-1.278 2.4 2.4 0 0 0 .178-1.89 2.493 2.493 0 0 0 -1.015-1.5 2.631 2.631 0 0 0 -1.878-.31q-.678.107-3.8.967zm2.4 8.709 1.615 5.856 4.091-1.128a20.75 20.75 0 0 0 3-.971 2.843 2.843 0 0 0 1.365-1.317 2.79 2.79 0 0 0 .107-2.031 2.964 2.964 0 0 0 -.939-1.541 2.8 2.8 0 0 0 -1.658-.62 15.582 15.582 0 0 0 -4.008.768z"/><path d="m47.643 44.1 4.447 1.41a9.978 9.978 0 0 1 -3.4 5.524 9.694 9.694 0 0 1 -6.033 1.805 9.773 9.773 0 0 1 -7.44-3.092q-2.917-3.094-2.917-8.456 0-5.672 2.929-8.81a10.043 10.043 0 0 1 7.7-3.138 9.449 9.449 0 0 1 6.771 2.464 8.961 8.961 0 0 1 2.324 4.184l-4.54 1.085a4.7 4.7 0 0 0 -4.784-3.812 5.17 5.17 0 0 0 -4.1 1.813q-1.573 1.813-1.573 5.873 0 4.308 1.55 6.137a5.033 5.033 0 0 0 4.03 1.829 4.6 4.6 0 0 0 3.146-1.162 6.751 6.751 0 0 0 1.89-3.654z"/></g><path d="m49.415 64.143h15.834v-46.107h-23.368c4.86 1.417 23.164 8.819 10.209 37.551a35.357 35.357 0 0 0 -2.675 8.556z" fill="#fd5"/><path d="m58.7 64.143h-9.285c-1.741 10.149 2.085 18.784 9.285 25.157z" fill="#91db7a"/></svg>